<?xml version="1.0" standalone="no"?><!DOCTYPE svg PUBLIC "-//W3C//DTD SVG 1.1//EN" "http://www.w3.org/Graphics/SVG/1.1/DTD/svg11.dtd"><svg t="1535164894156" class="icon" style="" viewBox="0 0 1024 1024" version="1.1" xmlns="http://www.w3.org/2000/svg" p-id="1956" xmlns:xlink="http://www.w3.org/1999/xlink" width="200" height="200"><defs><style type="text/css"></style></defs><path d="M294.9 384.2c-3.2 0-6.4-1-9.1-3.1-6.8-5.1-8.1-14.6-3.1-21.4L498.8 71.2c5.1-6.8 14.6-8.1 21.4-3.1 6.8 5.1 8.1 14.6 3.1 21.4L307.2 378.1c-3.1 4-7.6 6.1-12.3 6.1z" fill="#ffffff" p-id="1957"></path><path d="M208.9 818.8c-1 0-2-0.1-3-0.3-8.3-1.6-13.7-9.7-12-17.9l86-438c1.6-8.3 9.7-13.7 17.9-12 8.3 1.6 13.7 9.7 12 17.9l-86 438c-1.3 7.2-7.7 12.3-14.9 12.3z" fill="#ffffff" p-id="1958"></path><path d="M514.5 931.9c-6.2 0-12-3.8-14.3-10L295.8 370.4c-2.9-7.9 1.1-16.7 9-19.6 7.9-2.9 16.7 1.1 19.6 9l204.4 551.5c2.9 7.9-1.1 16.7-9 19.6-1.8 0.7-3.6 1-5.3 1z" fill="#ffffff" p-id="1959"></path><path d="M516.7 959.1c-2.1 0-4.3-0.4-6.3-1.4L202.6 817.4c-7.7-3.5-11.1-12.6-7.6-20.2 3.5-7.7 12.6-11.1 20.2-7.6L523 929.9c7.7 3.5 11.1 12.6 7.6 20.2-2.5 5.7-8.1 9-13.9 9z" fill="#ffffff" p-id="1960"></path><path d="M511.1 960.2c-5.8 0-11.3-3.3-13.9-8.9-3.5-7.7-0.1-16.7 7.6-20.2l307.8-140.3c7.7-3.5 16.7-0.1 20.2 7.6 3.5 7.7 0.1 16.7-7.6 20.2L517.4 958.8c-2 1-4.2 1.4-6.3 1.4z" fill="#ffffff" p-id="1961"></path><path d="M526.2 932.4c-1.8 0-3.6-0.3-5.3-1-7.9-2.9-11.9-11.7-9-19.6l204.4-551.5c2.9-7.9 11.7-12 19.6-9 7.9 2.9 11.9 11.7 9 19.6L540.6 922.4c-2.3 6.1-8.2 10-14.4 10z" fill="#ffffff" p-id="1962"></path><path d="M817.7 818.8c-7.2 0-13.5-5.1-15-12.3l-86-438c-1.6-8.3 3.8-16.3 12-17.9 8.3-1.6 16.3 3.8 17.9 12l86 438c1.6 8.3-3.8 16.3-12 17.9-0.9 0.2-1.9 0.3-2.9 0.3z" fill="#ffffff" p-id="1963"></path><path d="M730.6 383.1c-4.6 0-9.2-2.1-12.2-6.1L502.2 88.4c-5.1-6.8-3.7-16.3 3.1-21.4 6.8-5.1 16.3-3.7 21.4 3.1l216.1 288.6c5.1 6.8 3.7 16.3-3.1 21.4-2.7 2-5.9 3-9.1 3z" fill="#ffffff" p-id="1964"></path></svg>